<?xml version="1.0" encoding="UTF-8"?>
<svg id="_レイヤー_1" data-name="レイヤー 1" xmlns="http://www.w3.org/2000/svg" viewBox="0 0 677.52 279.41">
  <defs>
    <style>
      .cls-1 {
        fill: #389826;
      }

      .cls-1, .cls-2, .cls-3, .cls-4 {
        stroke: #fff;
        stroke-linejoin: round;
        stroke-width: 4px;
      }

      .cls-5 {
        stroke-width: 0px;
      }

      .cls-2 {
        fill: #cb3c33;
      }

      .cls-3 {
        fill: #fff;
      }

      .cls-4 {
        fill: #9558b2;
      }
    </style>
  </defs>
  <g>
    <polygon class="cls-3" points="2.48 62.65 351.59 2.37 372.02 26.28 442.28 14.15 462.27 37.56 532.58 25.42 675.52 192.74 552.01 215.45 565.6 233.35 301.6 233.08 211.3 221.81 120.61 210.03 110.67 193.55 2.48 62.65"/>
    <g>
      <polygon class="cls-1" points="551.53 215.08 565.12 232.98 301.12 232.71 609.99 178.55 507.09 55.11 246.4 98.92 335.09 207.69 291.18 216.23 182.99 85.33 532.1 25.05 675.03 192.37 551.53 215.08"/>
      <polygon class="cls-4" points="461.22 203.82 474.82 221.71 210.81 221.44 519.69 167.29 416.79 43.85 156.09 87.65 244.78 196.42 200.88 204.96 92.69 74.06 441.79 13.78 584.73 181.1 461.22 203.82"/>
      <polygon class="cls-2" points="370.54 192.03 384.13 209.93 120.13 209.66 429 155.5 326.1 32.06 65.41 75.87 154.1 184.64 110.19 193.18 2 62.28 351.11 2 494.04 169.32 370.54 192.03"/>
    </g>
  </g>
  <g>
    <path class="cls-5" d="m155.26,245.34h15.98v3.57h-6.23v22.56h-3.53v-22.56h-6.21v-3.57Z"/>
    <path class="cls-5" d="m173.96,262.94c0-2.31.91-4.36,2.74-6.16s3.92-2.7,6.29-2.7,4.56.89,6.38,2.66,2.73,3.84,2.73,6.2-.89,4.47-2.68,6.29c-1.78,1.81-3.85,2.72-6.18,2.72-2.5,0-4.67-.9-6.51-2.69s-2.76-3.9-2.76-6.32Zm14.68,0c0-1.44-.55-2.69-1.64-3.75s-2.39-1.59-3.9-1.59-2.87.54-3.99,1.61-1.67,2.36-1.67,3.85.56,2.67,1.69,3.74,2.45,1.6,3.97,1.6,2.77-.55,3.88-1.64,1.66-2.37,1.66-3.82Z"/>
    <path class="cls-5" d="m199.92,254.55v3.4c1.71-2.58,3.89-3.88,6.55-3.88,2.18,0,4.06.87,5.64,2.62,1.58,1.74,2.37,3.82,2.37,6.24s-.8,4.56-2.4,6.34c-1.6,1.78-3.48,2.67-5.65,2.67-1.26,0-2.46-.33-3.61-.98-1.15-.66-2.11-1.61-2.86-2.85v11.3h-3.57v-24.86h3.53Zm10.83,8.39c0-1.49-.56-2.79-1.68-3.91s-2.44-1.67-3.95-1.67-2.88.55-4,1.66-1.69,2.41-1.69,3.92.56,2.88,1.67,4.02c1.11,1.13,2.43,1.7,3.94,1.7s2.91-.56,4.03-1.68,1.68-2.47,1.68-4.04Z"/>
    <path class="cls-5" d="m218.13,262.94c0-2.31.91-4.36,2.74-6.16s3.92-2.7,6.29-2.7,4.56.89,6.38,2.66,2.73,3.84,2.73,6.2-.89,4.47-2.68,6.29c-1.78,1.81-3.85,2.72-6.18,2.72-2.5,0-4.67-.9-6.51-2.69s-2.76-3.9-2.76-6.32Zm14.68,0c0-1.44-.55-2.69-1.64-3.75s-2.39-1.59-3.9-1.59-2.87.54-3.99,1.61-1.67,2.36-1.67,3.85.56,2.67,1.69,3.74,2.45,1.6,3.97,1.6,2.77-.55,3.88-1.64,1.66-2.37,1.66-3.82Z"/>
    <path class="cls-5" d="m240.57,244.85h3.57v26.62h-3.57v-26.62Z"/>
    <path class="cls-5" d="m248.34,262.94c0-2.31.91-4.36,2.74-6.16s3.92-2.7,6.29-2.7,4.56.89,6.38,2.66,2.73,3.84,2.73,6.2-.89,4.47-2.68,6.29c-1.78,1.81-3.85,2.72-6.18,2.72-2.5,0-4.67-.9-6.51-2.69s-2.76-3.9-2.76-6.32Zm14.68,0c0-1.44-.55-2.69-1.64-3.75s-2.39-1.59-3.9-1.59-2.87.54-3.99,1.61-1.67,2.36-1.67,3.85.56,2.67,1.69,3.74,2.45,1.6,3.97,1.6,2.77-.55,3.88-1.64,1.66-2.37,1.66-3.82Z"/>
    <path class="cls-5" d="m284.37,254.55h3.49v16.24c0,2.39-.82,4.43-2.47,6.1s-3.64,2.51-5.98,2.51c-1.78,0-3.41-.48-4.9-1.45-1.49-.96-2.58-2.43-3.28-4.4h3.69c1.11,1.83,2.65,2.75,4.61,2.75,1.34,0,2.48-.48,3.42-1.45.94-.96,1.42-2.12,1.42-3.48v-3.2c-1.72,2.5-3.9,3.75-6.52,3.75-2.16,0-4.04-.89-5.65-2.68-1.61-1.78-2.41-3.89-2.41-6.33s.78-4.52,2.35-6.25,3.43-2.6,5.59-2.6c2.79,0,5,1.35,6.64,4.04v-3.57Zm.49,8.43c0-1.59-.55-2.91-1.65-3.98s-2.46-1.6-4.09-1.6c-1.49,0-2.8.55-3.94,1.66s-1.7,2.39-1.7,3.83c0,1.57.56,2.93,1.68,4.06s2.45,1.7,4,1.7,2.92-.55,4.03-1.66,1.67-2.45,1.67-4.02Z"/>
    <path class="cls-5" d="m292.8,248.99c0-.74.27-1.38.82-1.92.55-.54,1.2-.81,1.95-.81s1.38.27,1.92.81c.54.54.81,1.18.81,1.92s-.27,1.39-.81,1.93-1.18.8-1.92.8-1.4-.27-1.95-.8-.82-1.18-.82-1.93Zm1,5.56h3.53v16.92h-3.53v-16.92Z"/>
    <path class="cls-5" d="m315.36,266.3v4.08c-1.82,1.04-3.58,1.56-5.29,1.56-2.34,0-4.39-.88-6.14-2.64-1.76-1.76-2.64-3.79-2.64-6.1,0-2.62.88-4.8,2.62-6.53,1.75-1.73,3.94-2.59,6.58-2.59,1.57,0,3.19.41,4.86,1.23v3.98c-1.79-1.15-3.49-1.72-5.09-1.72-1.48,0-2.77.52-3.88,1.56s-1.66,2.26-1.66,3.65c0,1.57.52,2.9,1.56,3.97s2.31,1.61,3.81,1.61,3.28-.68,5.25-2.05Z"/>
    <path class="cls-5" d="m333.08,254.55h3.57v16.92h-3.57v-3.36c-1.74,2.56-3.89,3.83-6.46,3.83-2.23,0-4.13-.88-5.71-2.62-1.58-1.75-2.37-3.88-2.37-6.38,0-2.37.8-4.43,2.39-6.2s3.46-2.66,5.61-2.66c1.33,0,2.58.36,3.77,1.09s2.11,1.67,2.77,2.83v-3.45Zm.49,8.51c0-1.54-.55-2.87-1.66-3.97-1.11-1.1-2.44-1.65-3.99-1.65s-2.82.55-3.95,1.64-1.68,2.38-1.68,3.86c0,1.6.55,2.96,1.64,4.08s2.42,1.68,3.99,1.68,2.88-.56,3.99-1.67,1.66-2.44,1.66-3.97Z"/>
    <path class="cls-5" d="m342.49,244.85h3.57v26.62h-3.57v-26.62Z"/>
    <path class="cls-5" d="m351.35,244.3l19.32,19.86v-18.81h3.57v27.34l-19.32-19.77v18.56h-3.57v-27.17Z"/>
    <path class="cls-5" d="m378.61,254.55h3.57v9.54c0,2.94,1.29,4.41,3.88,4.41,1.15,0,2.06-.39,2.73-1.18s1-1.86,1-3.23v-9.54h3.53v10.11c0,2.12-.69,3.86-2.07,5.23s-3.14,2.05-5.29,2.05-3.96-.68-5.31-2.05-2.03-3.15-2.03-5.35v-9.99Z"/>
    <path class="cls-5" d="m397.29,271.47v-16.92h3.53v2.6c.83-1.07,1.63-1.85,2.39-2.34.76-.49,1.63-.74,2.62-.74,1.29,0,2.29.28,3.03.84.73.56,1.35,1.46,1.86,2.69.89-1.23,1.75-2.13,2.58-2.69.83-.56,1.79-.84,2.89-.84,1.34,0,2.5.5,3.48,1.51.97,1,1.46,2.2,1.46,3.58v12.3h-3.57v-11.38c0-1.87-.93-2.81-2.78-2.81-1.06,0-1.95.48-2.68,1.44-.73.96-1.1,2.14-1.1,3.55v9.21h-3.57v-10.91c0-2.21-.91-3.32-2.73-3.32-1.08,0-2,.45-2.75,1.35s-1.13,2.02-1.13,3.34v9.54h-3.53Z"/>
    <path class="cls-5" d="m426.19,244.85h3.53v13.04c1.52-2.54,3.69-3.81,6.52-3.81,2.19,0,4.08.88,5.69,2.62s2.41,3.83,2.41,6.23-.79,4.51-2.37,6.31c-1.58,1.8-3.42,2.7-5.53,2.7-1.35,0-2.64-.36-3.86-1.09s-2.17-1.71-2.87-2.95v3.57h-3.53v-26.62Zm14.38,18.09c0-1.54-.55-2.87-1.66-3.97-1.11-1.1-2.45-1.65-4.02-1.65s-2.83.56-3.95,1.67-1.67,2.43-1.67,3.95.56,2.92,1.67,4.01c1.11,1.09,2.49,1.63,4.11,1.63,1.5,0,2.8-.55,3.89-1.66,1.09-1.11,1.63-2.43,1.63-3.98Z"/>
    <path class="cls-5" d="m465.7,263.7h-14.44c.31,1.74,1.03,3,2.14,3.8,1.11.8,2.33,1.2,3.64,1.2,2.02,0,3.72-.84,5.09-2.52l2.6,1.97c-1.96,2.53-4.57,3.79-7.85,3.79-2.52,0-4.62-.86-6.32-2.58s-2.54-3.86-2.54-6.42c0-2.39.86-4.47,2.57-6.22,1.71-1.76,3.81-2.63,6.29-2.63s4.52.89,6.25,2.68c1.74,1.79,2.59,4.1,2.56,6.94Zm-14.07-2.85h10.34c-1.15-2.32-2.84-3.49-5.09-3.49-2.45,0-4.2,1.16-5.25,3.49Z"/>
    <path class="cls-5" d="m473.78,254.55v3.49c.79-1.39,1.57-2.4,2.33-3.02.76-.62,1.75-.93,2.96-.93.34,0,.83.08,1.48.25l-1.09,3.57c-.68-.14-1.13-.21-1.35-.21-1.2,0-2.21.42-3.02,1.26-.81.84-1.22,1.89-1.22,3.15v9.37h-3.57v-16.92h3.49Z"/>
    <path class="cls-5" d="m494,256.56l-2.38,2.09c-.62-.44-1.15-.77-1.6-1-.45-.22-.98-.34-1.6-.34-1.45,0-2.17.53-2.17,1.6,0,.77.92,1.51,2.76,2.23,1.84.72,3.16,1.51,3.97,2.37s1.21,1.9,1.21,3.11c0,1.42-.58,2.66-1.74,3.72s-2.53,1.59-4.1,1.59c-2.39,0-4.35-1.11-5.89-3.32l2.81-1.35c.98.96,2.01,1.44,3.08,1.44.74,0,1.38-.2,1.94-.6.55-.4.83-.87.83-1.41,0-.94-.97-1.79-2.91-2.55-1.94-.75-3.29-1.52-4.03-2.29s-1.12-1.72-1.12-2.86c0-1.41.53-2.58,1.59-3.51,1.06-.94,2.39-1.4,3.99-1.4s3.39.83,5.37,2.48Z"/>
    <path class="cls-5" d="m497.16,269.07c0-.75.27-1.4.81-1.95.54-.55,1.19-.82,1.96-.82s1.4.27,1.95.82.82,1.2.82,1.95-.27,1.42-.81,1.96c-.54.54-1.19.81-1.96.81s-1.42-.27-1.96-.8c-.54-.53-.81-1.19-.81-1.97Z"/>
    <path class="cls-5" d="m506.37,249.03c0-.75.27-1.4.82-1.95s1.2-.82,1.95-.82,1.4.27,1.95.82.82,1.2.82,1.95-.27,1.4-.82,1.96c-.55.55-1.2.83-1.95.83s-1.4-.28-1.95-.83c-.55-.55-.82-1.21-.82-1.96Zm1,5.52h3.57v24.86h-3.57v-24.86Z"/>
    <path class="cls-5" d="m516.69,244.85h3.57v26.62h-3.57v-26.62Z"/>
  </g>
</svg>