<?xml version="1.0" encoding="UTF-8"?>
<svg id="_レイヤー_1" data-name="レイヤー 1" xmlns="http://www.w3.org/2000/svg" viewBox="0 0 677.52 235.35">
  <defs>
    <style>
      .cls-1 {
        fill: #389826;
      }

      .cls-1, .cls-2, .cls-3, .cls-4 {
        stroke: #fff;
        stroke-linejoin: round;
        stroke-width: 4px;
      }

      .cls-2 {
        fill: #cb3c33;
      }

      .cls-3 {
        fill: #fff;
      }

      .cls-4 {
        fill: #9558b2;
      }
    </style>
  </defs>
  <polygon class="cls-3" points="2.48 62.65 351.59 2.37 372.02 26.28 442.28 14.15 462.27 37.56 532.58 25.42 675.52 192.74 552.01 215.45 565.6 233.35 301.6 233.08 211.3 221.81 120.61 210.03 110.67 193.55 2.48 62.65"/>
  <g>
    <polygon class="cls-1" points="551.53 215.08 565.12 232.98 301.12 232.71 609.99 178.55 507.09 55.11 246.4 98.92 335.09 207.69 291.18 216.23 182.99 85.33 532.1 25.05 675.03 192.37 551.53 215.08"/>
    <polygon class="cls-4" points="461.22 203.82 474.82 221.71 210.81 221.44 519.69 167.29 416.79 43.85 156.09 87.65 244.78 196.42 200.88 204.96 92.69 74.06 441.79 13.78 584.73 181.1 461.22 203.82"/>
    <polygon class="cls-2" points="370.54 192.03 384.13 209.93 120.13 209.66 429 155.5 326.1 32.06 65.41 75.87 154.1 184.64 110.19 193.18 2 62.28 351.11 2 494.04 169.32 370.54 192.03"/>
  </g>
</svg>